<svg width="3112" height="2590" viewBox="0 0 3112 2590" fill="none" xmlns="http://www.w3.org/2000/svg">
<g filter="url(#filter0_d)">
<ellipse cx="1556" cy="2498" rx="1139" ry="9" fill="#C4C4C4" fill-opacity="0.01"/>
</g>
<rect width="3112" height="2176" rx="35" fill="#F1F1F1"/>
<path d="M0 1866H3112V2141C3112 2160.33 3096.33 2176 3077 2176H35C15.6701 2176 0 2160.33 0 2141V1866Z" fill="#F5F5F5"/>
<g filter="url(#filter1_d)">
<path d="M1032 2559C1026.48 2553.48 1027 2537 1039 2528H2073C2085 2537 2086 2550 2080 2559C2073.8 2568.3 2043 2570.33 2027 2570H1085C1069 2570.33 1041 2568 1032 2559Z" fill="url(#paint0_linear)"/>
</g>
<path d="M1202 2176C1202 2176 1171 2399 1162 2423C1153 2447 1109 2473 1101 2479C1093 2485 1065 2505 1053 2514C1041 2523 1026.19 2533.37 1032 2545C1037 2555 1069 2556.33 1085 2556H1614H2027C2043 2556.33 2075 2555 2080 2545C2085.81 2533.37 2071 2523 2059 2514C2047 2505 2019 2485 2011 2479C2003 2473 1959 2447 1950 2423C1941 2399 1910 2176 1910 2176H1614H1202Z" fill="#F5F5F5"/>
<path d="M1202 2176C1202 2176 1171 2399 1162 2423C1153 2447 1109 2473 1101 2479C1093 2485 1065 2505 1053 2514C1041 2523 1026.19 2533.37 1032 2545C1037 2555 1069 2556.33 1085 2556H1614H2027C2043 2556.33 2075 2555 2080 2545C2085.81 2533.37 2071 2523 2059 2514C2047 2505 2019 2485 2011 2479C2003 2473 1959 2447 1950 2423C1941 2399 1910 2176 1910 2176H1614H1202Z" fill="url(#paint1_radial)"/>
<path d="M1202 2176C1202 2176 1171 2399 1162 2423C1153 2447 1109 2473 1101 2479C1093 2485 1065 2505 1053 2514C1041 2523 1026.19 2533.37 1032 2545C1037 2555 1069 2556.33 1085 2556H1614H2027C2043 2556.33 2075 2555 2080 2545C2085.81 2533.37 2071 2523 2059 2514C2047 2505 2019 2485 2011 2479C2003 2473 1959 2447 1950 2423C1941 2399 1910 2176 1910 2176H1614H1202Z" fill="url(#paint2_linear)"/>
<path d="M1202 2176C1202 2176 1171 2399 1162 2423C1153 2447 1109 2473 1101 2479C1093 2485 1065 2505 1053 2514C1041 2523 1026.19 2533.37 1032 2545C1037 2555 1069 2556.33 1085 2556H1614H2027C2043 2556.33 2075 2555 2080 2545C2085.81 2533.37 2071 2523 2059 2514C2047 2505 2019 2485 2011 2479C2003 2473 1959 2447 1950 2423C1941 2399 1910 2176 1910 2176H1614H1202Z" fill="url(#paint3_linear)"/>
<rect x="105.5" y="115.5" width="2901" height="1637" stroke="#E1E1E1" stroke-width="3"/>
<g filter="url(#filter2_b)">
<path d="M100 183.051H3008V2068C3008 2070.8 3008 2072.2 3007.46 2073.27C3006.98 2074.21 3006.21 2074.98 3005.27 2075.46C3004.2 2076 3002.8 2076 3000 2076H108C105.2 2076 103.8 2076 102.73 2075.46C101.789 2074.98 101.024 2074.21 100.545 2073.27C100 2072.2 100 2070.8 100 2068V183.051Z" fill="white"/>
</g>
<path d="M102.272 108.591C102.272 106.351 102.272 105.231 102.708 104.375C103.091 103.623 103.703 103.011 104.456 102.627C105.311 102.191 106.432 102.191 108.672 102.191H2999.33C3001.57 102.191 3002.69 102.191 3003.54 102.627C3004.3 103.011 3004.91 103.623 3005.29 104.375C3005.73 105.231 3005.73 106.351 3005.73 108.591V181.079H102.272V108.591Z" fill="url(#paint4_linear)"/>
<rect opacity="0.95" x="102.272" y="181.079" width="2903.46" height="2.19131" fill="#A5A6A7"/>
<rect opacity="0.9" x="2951.2" y="126.296" width="54.525" height="54.7828" fill="url(#paint5_linear)"/>
<path d="M2951.2 126.296V181.079H2953.47V128.487H3005.73V126.296H2951.2Z" fill="#A7A8A6"/>
<rect x="2978.47" y="143.826" width="2.27187" height="24.1044" fill="#666666"/>
<rect x="2967.11" y="156.974" width="2.19131" height="24.9906" transform="rotate(-90 2967.11 156.974)" fill="#666666"/>
<g filter="url(#filter3_i)">
<rect x="2846.7" y="115.339" width="88.6031" height="52.5915" rx="5" fill="url(#paint6_linear)"/>
</g>
<rect x="2847.2" y="115.839" width="87.6031" height="51.5915" rx="4.5" stroke="url(#paint7_linear)"/>
<rect x="2879" y="135.561" width="19.4469" height="18.7218" rx="0.5" stroke="#575757"/>
<path d="M2887.09 130.678V132.37H2885.82V130.087C2885.82 129.799 2885.82 129.613 2885.83 129.471C2885.84 129.335 2885.86 129.285 2885.87 129.26C2885.92 129.166 2886 129.089 2886.09 129.042C2886.12 129.029 2886.17 129.01 2886.3 128.999C2886.44 128.987 2886.63 128.987 2886.92 128.987H2904.17C2904.45 128.987 2904.64 128.987 2904.78 128.999C2904.92 129.01 2904.97 129.029 2904.99 129.042C2905.09 129.089 2905.16 129.166 2905.21 129.26C2905.22 129.285 2905.24 129.335 2905.25 129.471C2905.27 129.613 2905.27 129.799 2905.27 130.087V146.609C2905.27 146.897 2905.27 147.083 2905.25 147.225C2905.24 147.361 2905.22 147.411 2905.21 147.436C2905.16 147.53 2905.09 147.606 2904.99 147.654C2904.97 147.667 2904.92 147.686 2904.78 147.697C2904.64 147.708 2904.45 147.709 2904.17 147.709H2901.72V146.518H2903.49H2903.99V146.018V130.678V130.178H2903.49H2887.59H2887.09V130.678Z" stroke="#575757"/>
<g filter="url(#filter4_i)">
<rect x="2744.46" y="115.339" width="88.6031" height="52.5915" rx="5" fill="url(#paint8_linear)"/>
</g>
<rect x="2744.96" y="115.839" width="87.6031" height="51.5915" rx="4.5" stroke="url(#paint9_linear)"/>
<path d="M2778.54 154.783H2798.99C2798.99 154.783 2798.99 137.249 2798.99 137.249L2792.17 137.252V135.061H2798.97C2800.25 135.061 2801.26 136.038 2801.26 137.242V154.793C2801.26 155.976 2800.25 156.974 2799 156.974H2778.53C2777.28 156.974 2776.27 155.998 2776.27 154.793V137.242C2776.27 136.06 2777.3 135.061 2778.56 135.061H2785.36V137.252H2778.56C2778.55 137.252 2778.54 154.783 2778.54 154.783Z" fill="#ADADAD"/>
<path d="M2788.73 127.048L2782.96 132.683C2782.54 133.089 2781.87 133.089 2781.45 132.683C2781.04 132.277 2781.04 131.618 2781.45 131.211L2787.98 124.84C2788.39 124.434 2789.07 124.434 2789.48 124.84L2796.01 131.211C2796.43 131.618 2796.43 132.277 2796.01 132.683C2795.59 133.089 2794.92 133.089 2794.5 132.683L2788.73 127.048Z" fill="#ADADAD"/>
<path d="M2787.63 126.296H2789.9V146.018H2787.63V126.296Z" fill="#ADADAD"/>
<g filter="url(#filter5_i)">
<rect x="963.312" y="115.339" width="1176.83" height="52.5915" rx="5" fill="url(#paint10_linear)"/>
</g>
<rect x="963.812" y="115.839" width="1175.83" height="51.5915" rx="4.5" stroke="url(#paint11_linear)"/>
<path d="M1437.6 146.214C1437.65 146.616 1437.86 146.934 1438.23 147.169C1438.6 147.407 1439.06 147.526 1439.63 147.526C1440.15 147.526 1440.59 147.403 1440.94 147.157C1441.28 146.915 1441.45 146.606 1441.45 146.231C1441.45 145.911 1441.33 145.647 1441.07 145.44C1440.81 145.237 1440.41 145.069 1439.84 144.936L1438.75 144.673C1437.99 144.493 1437.43 144.214 1437.07 143.835C1436.71 143.456 1436.53 142.956 1436.53 142.335C1436.53 141.581 1436.81 140.975 1437.37 140.518C1437.94 140.057 1438.68 139.827 1439.6 139.827C1440.46 139.827 1441.18 140.053 1441.74 140.507C1442.31 140.96 1442.61 141.542 1442.65 142.253H1441.37C1441.31 141.862 1441.12 141.553 1440.8 141.327C1440.48 141.1 1440.08 140.987 1439.59 140.987C1439.07 140.987 1438.65 141.102 1438.33 141.333C1438.01 141.563 1437.86 141.868 1437.86 142.247C1437.86 142.548 1437.98 142.792 1438.22 142.979C1438.46 143.167 1438.85 143.325 1439.4 143.454L1440.34 143.682C1441.2 143.885 1441.83 144.173 1442.21 144.544C1442.59 144.919 1442.78 145.425 1442.78 146.061C1442.78 146.87 1442.49 147.51 1441.91 147.983C1441.32 148.456 1440.53 148.692 1439.53 148.692C1438.59 148.692 1437.83 148.468 1437.25 148.018C1436.66 147.569 1436.35 146.968 1436.3 146.214H1437.6ZM1446.22 147.532C1446.69 147.532 1447.08 147.399 1447.4 147.134C1447.71 146.868 1447.87 146.536 1447.87 146.137V145.604L1446.31 145.704C1445.46 145.762 1445.03 146.069 1445.03 146.624C1445.03 146.905 1445.15 147.128 1445.37 147.292C1445.58 147.452 1445.87 147.532 1446.22 147.532ZM1445.9 148.593C1445.27 148.593 1444.76 148.421 1444.37 148.077C1443.97 147.721 1443.77 147.257 1443.77 146.682C1443.77 146.112 1443.97 145.663 1444.38 145.335C1444.79 145.01 1445.38 144.825 1446.14 144.778L1447.87 144.678V144.128C1447.87 143.425 1447.43 143.073 1446.56 143.073C1445.82 143.073 1445.38 143.309 1445.23 143.782H1444.01C1444.08 143.235 1444.35 142.798 1444.82 142.469C1445.3 142.145 1445.9 141.983 1446.62 141.983C1447.42 141.983 1448.04 142.173 1448.47 142.552C1448.91 142.927 1449.12 143.452 1449.12 144.128V148.487H1447.91V147.591H1447.81C1447.41 148.259 1446.77 148.593 1445.9 148.593ZM1451.16 143.196H1450.11V142.135H1451.16V141.503C1451.16 140.862 1451.33 140.395 1451.67 140.102C1451.99 139.817 1452.48 139.675 1453.16 139.675C1453.39 139.675 1453.63 139.694 1453.87 139.733V140.741C1453.69 140.71 1453.5 140.694 1453.31 140.694C1452.71 140.694 1452.41 140.987 1452.41 141.573V142.135H1453.82V143.196H1452.42V148.487H1451.16V143.196ZM1456.96 147.532C1457.43 147.532 1457.83 147.399 1458.15 147.134C1458.46 146.868 1458.61 146.536 1458.61 146.137V145.604L1457.06 145.704C1456.2 145.762 1455.78 146.069 1455.78 146.624C1455.78 146.905 1455.89 147.128 1456.11 147.292C1456.33 147.452 1456.61 147.532 1456.96 147.532ZM1456.64 148.593C1456.01 148.593 1455.51 148.421 1455.12 148.077C1454.71 147.721 1454.51 147.257 1454.51 146.682C1454.51 146.112 1454.72 145.663 1455.13 145.335C1455.54 145.01 1456.12 144.825 1456.89 144.778L1458.61 144.678V144.128C1458.61 143.425 1458.18 143.073 1457.31 143.073C1456.57 143.073 1456.13 143.309 1455.98 143.782H1454.76C1454.82 143.235 1455.09 142.798 1455.57 142.469C1456.04 142.145 1456.64 141.983 1457.37 141.983C1458.16 141.983 1458.78 142.173 1459.22 142.552C1459.65 142.927 1459.87 143.452 1459.87 144.128V148.487H1458.66V147.591H1458.56C1458.16 148.259 1457.52 148.593 1456.64 148.593ZM1461.46 142.106H1462.67V143.085H1462.77C1462.86 142.768 1463.06 142.509 1463.38 142.305C1463.7 142.102 1464.07 142.001 1464.48 142.001C1464.72 142.001 1464.91 142.018 1465.04 142.053V143.296C1464.9 143.245 1464.66 143.219 1464.34 143.219C1463.87 143.219 1463.48 143.358 1463.18 143.635C1462.87 143.913 1462.72 144.274 1462.72 144.719V148.487H1461.46V142.106ZM1466.11 142.106H1467.37V148.487H1466.11V142.106ZM1466.74 140.987C1466.51 140.987 1466.31 140.913 1466.16 140.764C1466 140.62 1465.93 140.438 1465.93 140.219C1465.93 140.001 1466 139.817 1466.16 139.669C1466.31 139.52 1466.51 139.446 1466.74 139.446C1466.97 139.446 1467.17 139.52 1467.33 139.669C1467.48 139.817 1467.55 140.001 1467.55 140.219C1467.55 140.438 1467.48 140.62 1467.33 140.764C1467.17 140.913 1466.97 140.987 1466.74 140.987ZM1472.25 148.487V140.032H1473.78L1476.47 146.454H1476.57L1479.27 140.032H1480.8V148.487H1479.58V142.382H1479.5L1477.02 148.241H1476.03L1473.55 142.382H1473.46V148.487H1472.25ZM1485.27 147.491C1485.81 147.491 1486.24 147.298 1486.54 146.911C1486.83 146.528 1486.98 145.989 1486.98 145.294C1486.98 144.602 1486.83 144.063 1486.54 143.677C1486.24 143.294 1485.81 143.102 1485.27 143.102C1484.72 143.102 1484.3 143.294 1484 143.677C1483.71 144.059 1483.56 144.598 1483.56 145.294C1483.56 145.993 1483.71 146.534 1484 146.917C1484.3 147.3 1484.72 147.491 1485.27 147.491ZM1485.27 148.61C1484.33 148.61 1483.6 148.315 1483.06 147.725C1482.53 147.135 1482.26 146.325 1482.26 145.294C1482.26 144.266 1482.53 143.458 1483.07 142.868C1483.6 142.278 1484.34 141.983 1485.27 141.983C1486.2 141.983 1486.93 142.278 1487.47 142.868C1488.01 143.458 1488.28 144.266 1488.28 145.294C1488.28 146.325 1488.01 147.135 1487.47 147.725C1486.94 148.315 1486.2 148.61 1485.27 148.61ZM1493.77 144.192C1493.69 143.868 1493.53 143.61 1493.28 143.419C1493.01 143.212 1492.67 143.108 1492.27 143.108C1491.74 143.108 1491.32 143.3 1491.02 143.682C1490.72 144.065 1490.57 144.596 1490.57 145.276C1490.57 145.964 1490.72 146.505 1491.02 146.899C1491.32 147.29 1491.74 147.485 1492.27 147.485C1493.1 147.485 1493.6 147.135 1493.77 146.436H1495C1494.91 147.093 1494.64 147.616 1494.16 148.007C1493.68 148.409 1493.05 148.61 1492.27 148.61C1491.34 148.61 1490.61 148.315 1490.08 147.725C1489.55 147.132 1489.28 146.315 1489.28 145.276C1489.28 144.253 1489.54 143.448 1490.07 142.862C1490.61 142.276 1491.34 141.983 1492.27 141.983C1493.04 141.983 1493.68 142.192 1494.17 142.61C1494.63 143.005 1494.91 143.532 1495 144.192H1493.77ZM1500.19 142.106H1501.68L1499.05 144.843L1501.85 148.487H1500.3L1498.11 145.675L1497.56 146.202V148.487H1496.3V139.616H1497.56V144.766H1497.66L1500.19 142.106ZM1508.31 148.487H1507.11V147.473H1507.01C1506.68 148.231 1506.02 148.61 1505.01 148.61C1504.3 148.61 1503.74 148.403 1503.35 147.989C1502.95 147.575 1502.75 146.991 1502.75 146.237V142.106H1504.01V145.921C1504.01 146.936 1504.48 147.444 1505.42 147.444C1505.93 147.444 1506.33 147.302 1506.62 147.016C1506.91 146.731 1507.06 146.339 1507.06 145.839V142.106H1508.31V148.487ZM1513.26 142.001C1514.07 142.001 1514.71 142.296 1515.19 142.885C1515.67 143.479 1515.91 144.282 1515.91 145.294C1515.91 146.305 1515.67 147.108 1515.19 147.702C1514.72 148.296 1514.08 148.593 1513.27 148.593C1512.32 148.593 1511.66 148.235 1511.31 147.52H1511.21V150.555H1509.95V142.106H1511.16V143.161H1511.25C1511.45 142.798 1511.72 142.512 1512.07 142.305C1512.43 142.102 1512.82 142.001 1513.26 142.001ZM1512.9 147.462C1513.44 147.462 1513.86 147.27 1514.16 146.887C1514.46 146.501 1514.61 145.969 1514.61 145.294C1514.61 144.618 1514.46 144.089 1514.16 143.706C1513.86 143.323 1513.44 143.132 1512.91 143.132C1512.37 143.132 1511.95 143.325 1511.65 143.712C1511.34 144.102 1511.18 144.632 1511.18 145.3C1511.18 145.964 1511.34 146.491 1511.65 146.882C1511.95 147.268 1512.37 147.462 1512.9 147.462ZM1519.4 145.698V144.462H1531.4V145.698H1519.4ZM1540.61 148.487H1535.33V140.032H1536.65V147.28H1540.61V148.487ZM1541.95 142.106H1543.2V148.487H1541.95V142.106ZM1542.57 140.987C1542.34 140.987 1542.15 140.913 1541.99 140.764C1541.84 140.62 1541.76 140.438 1541.76 140.219C1541.76 140.001 1541.84 139.817 1541.99 139.669C1542.15 139.52 1542.34 139.446 1542.57 139.446C1542.81 139.446 1543 139.52 1543.16 139.669C1543.31 139.817 1543.39 140.001 1543.39 140.219C1543.39 140.438 1543.31 140.62 1543.16 140.764C1543 140.913 1542.81 140.987 1542.57 140.987ZM1549.25 145.218C1549.25 144.581 1549.1 144.075 1548.79 143.7C1548.48 143.321 1548.06 143.132 1547.52 143.132C1546.99 143.132 1546.57 143.321 1546.27 143.7C1545.98 144.067 1545.83 144.573 1545.83 145.218C1545.83 145.862 1545.98 146.368 1546.27 146.735C1546.57 147.114 1546.99 147.303 1547.52 147.303C1548.06 147.303 1548.48 147.116 1548.8 146.741C1549.1 146.366 1549.25 145.858 1549.25 145.218ZM1547.54 150.925C1546.75 150.925 1546.11 150.76 1545.61 150.432C1545.13 150.108 1544.85 149.673 1544.78 149.126H1546.07C1546.13 149.36 1546.28 149.546 1546.53 149.682C1546.8 149.819 1547.14 149.887 1547.56 149.887C1548.08 149.887 1548.49 149.768 1548.79 149.53C1549.08 149.296 1549.23 148.968 1549.23 148.546V147.321H1549.14C1548.74 148.036 1548.08 148.393 1547.17 148.393C1546.36 148.393 1545.72 148.104 1545.24 147.526C1544.77 146.952 1544.53 146.184 1544.53 145.223C1544.53 144.247 1544.77 143.466 1545.25 142.88C1545.72 142.294 1546.37 142.001 1547.18 142.001C1547.62 142.001 1548.01 142.102 1548.37 142.305C1548.73 142.505 1549 142.778 1549.18 143.126H1549.28V142.106H1550.49V148.54C1550.49 149.27 1550.22 149.85 1549.69 150.28C1549.16 150.71 1548.44 150.925 1547.54 150.925ZM1552.18 139.616H1553.42V143.132H1553.52C1553.68 142.772 1553.93 142.493 1554.29 142.294C1554.64 142.091 1555.05 141.989 1555.53 141.989C1556.25 141.989 1556.81 142.196 1557.2 142.61C1557.59 143.024 1557.79 143.61 1557.79 144.368V148.487H1556.53V144.678C1556.53 143.655 1556.05 143.143 1555.11 143.143C1554.59 143.143 1554.19 143.292 1553.89 143.589C1553.59 143.882 1553.44 144.272 1553.44 144.76V148.487H1552.18V139.616ZM1561.08 140.559V142.135H1562.51V143.196H1561.08V146.477C1561.08 146.809 1561.15 147.053 1561.29 147.21C1561.44 147.362 1561.67 147.438 1561.98 147.438C1562.1 147.438 1562.25 147.428 1562.45 147.409V148.458C1562.2 148.501 1561.98 148.522 1561.77 148.522C1561.07 148.522 1560.57 148.389 1560.27 148.124C1559.97 147.858 1559.82 147.417 1559.82 146.8V143.196H1558.77V142.135H1559.82V140.559H1561.08ZM1569.11 148.487V141.227H1566.45V140.032H1573.08V141.227H1570.43V148.487H1569.11ZM1574.4 139.616H1575.65V143.132H1575.75C1575.91 142.772 1576.16 142.493 1576.51 142.294C1576.86 142.091 1577.28 141.989 1577.76 141.989C1578.48 141.989 1579.03 142.196 1579.42 142.61C1579.82 143.024 1580.02 143.61 1580.02 144.368V148.487H1578.76V144.678C1578.76 143.655 1578.28 143.143 1577.33 143.143C1576.82 143.143 1576.41 143.292 1576.11 143.589C1575.81 143.882 1575.66 144.272 1575.66 144.76V148.487H1574.4V139.616ZM1584.22 143.055C1583.75 143.055 1583.37 143.206 1583.07 143.507C1582.77 143.807 1582.6 144.208 1582.56 144.708H1585.79C1585.77 144.204 1585.62 143.803 1585.34 143.507C1585.06 143.206 1584.68 143.055 1584.22 143.055ZM1586.99 146.764C1586.85 147.339 1586.54 147.79 1586.05 148.118C1585.56 148.446 1584.96 148.61 1584.23 148.61C1583.31 148.61 1582.6 148.315 1582.07 147.725C1581.55 147.139 1581.28 146.337 1581.28 145.317C1581.28 144.298 1581.55 143.487 1582.08 142.885C1582.61 142.284 1583.32 141.983 1584.22 141.983C1585.11 141.983 1585.81 142.268 1586.31 142.839C1586.82 143.409 1587.07 144.196 1587.07 145.2V145.639H1582.56V145.71C1582.58 146.272 1582.75 146.718 1583.05 147.046C1583.36 147.374 1583.76 147.538 1584.26 147.538C1585.03 147.538 1585.54 147.28 1585.78 146.764H1586.99ZM1588.38 142.106H1589.6V143.132H1589.69C1589.99 142.366 1590.58 141.983 1591.46 141.983C1592.33 141.983 1592.91 142.366 1593.22 143.132H1593.32C1593.49 142.78 1593.74 142.501 1594.08 142.294C1594.43 142.087 1594.82 141.983 1595.26 141.983C1595.91 141.983 1596.41 142.169 1596.77 142.54C1597.12 142.911 1597.3 143.428 1597.3 144.093V148.487H1596.04V144.421C1596.04 143.565 1595.63 143.137 1594.8 143.137C1594.4 143.137 1594.08 143.266 1593.83 143.524C1593.58 143.774 1593.46 144.091 1593.46 144.473V148.487H1592.22V144.298C1592.22 143.938 1592.11 143.655 1591.89 143.448C1591.66 143.241 1591.36 143.137 1590.99 143.137C1590.61 143.137 1590.29 143.276 1590.03 143.553C1589.77 143.831 1589.64 144.175 1589.64 144.585V148.487H1588.38V142.106ZM1601.49 143.055C1601.02 143.055 1600.64 143.206 1600.34 143.507C1600.04 143.807 1599.87 144.208 1599.84 144.708H1603.06C1603.04 144.204 1602.9 143.803 1602.61 143.507C1602.33 143.206 1601.95 143.055 1601.49 143.055ZM1604.27 146.764C1604.12 147.339 1603.81 147.79 1603.32 148.118C1602.83 148.446 1602.23 148.61 1601.5 148.61C1600.59 148.61 1599.87 148.315 1599.34 147.725C1598.82 147.139 1598.55 146.337 1598.55 145.317C1598.55 144.298 1598.82 143.487 1599.35 142.885C1599.88 142.284 1600.6 141.983 1601.49 141.983C1602.38 141.983 1603.08 142.268 1603.59 142.839C1604.09 143.409 1604.34 144.196 1604.34 145.2V145.639H1599.84V145.71C1599.86 146.272 1600.02 146.718 1600.32 147.046C1600.63 147.374 1601.03 147.538 1601.54 147.538C1602.31 147.538 1602.81 147.28 1603.05 146.764H1604.27ZM1610.41 150.11C1609.36 148.79 1608.83 147.077 1608.83 144.971C1608.83 143.081 1609.38 141.436 1610.47 140.038H1611.58C1611.15 140.534 1610.8 141.243 1610.53 142.165C1610.26 143.087 1610.12 144.022 1610.12 144.971C1610.12 146.721 1610.6 148.434 1611.56 150.11H1610.41ZM1613.11 148.487V140.032H1614.65L1617.34 146.454H1617.44L1620.13 140.032H1621.67V148.487H1620.45V142.382H1620.37L1617.89 148.241H1616.89L1614.41 142.382H1614.33V148.487H1613.11ZM1625.53 147.532C1626 147.532 1626.39 147.399 1626.71 147.134C1627.02 146.868 1627.18 146.536 1627.18 146.137V145.604L1625.62 145.704C1624.77 145.762 1624.34 146.069 1624.34 146.624C1624.34 146.905 1624.45 147.128 1624.68 147.292C1624.89 147.452 1625.18 147.532 1625.53 147.532ZM1625.2 148.593C1624.58 148.593 1624.07 148.421 1623.68 148.077C1623.28 147.721 1623.08 147.257 1623.08 146.682C1623.08 146.112 1623.28 145.663 1623.69 145.335C1624.1 145.01 1624.69 144.825 1625.45 144.778L1627.18 144.678V144.128C1627.18 143.425 1626.74 143.073 1625.87 143.073C1625.13 143.073 1624.69 143.309 1624.54 143.782H1623.32C1623.39 143.235 1623.66 142.798 1624.13 142.469C1624.6 142.145 1625.2 141.983 1625.93 141.983C1626.73 141.983 1627.35 142.173 1627.78 142.552C1628.22 142.927 1628.43 143.452 1628.43 144.128V148.487H1627.22V147.591H1627.12C1626.72 148.259 1626.08 148.593 1625.2 148.593ZM1634.2 144.192C1634.13 143.868 1633.96 143.61 1633.71 143.419C1633.44 143.212 1633.1 143.108 1632.7 143.108C1632.17 143.108 1631.76 143.3 1631.46 143.682C1631.15 144.065 1631 144.596 1631 145.276C1631 145.964 1631.15 146.505 1631.46 146.899C1631.76 147.29 1632.17 147.485 1632.7 147.485C1633.53 147.485 1634.04 147.135 1634.2 146.436H1635.43C1635.35 147.093 1635.07 147.616 1634.6 148.007C1634.11 148.409 1633.48 148.61 1632.7 148.61C1631.77 148.61 1631.04 148.315 1630.51 147.725C1629.98 147.132 1629.71 146.315 1629.71 145.276C1629.71 144.253 1629.98 143.448 1630.51 142.862C1631.04 142.276 1631.77 141.983 1632.7 141.983C1633.48 141.983 1634.11 142.192 1634.6 142.61C1635.07 143.005 1635.34 143.532 1635.43 144.192H1634.2ZM1640.42 139.827C1641.64 139.827 1642.6 140.225 1643.3 141.022C1644.01 141.815 1644.36 142.893 1644.36 144.257C1644.36 145.62 1644.01 146.698 1643.31 147.491C1642.6 148.292 1641.64 148.692 1640.42 148.692C1639.2 148.692 1638.23 148.294 1637.53 147.497C1636.82 146.704 1636.47 145.624 1636.47 144.257C1636.47 142.893 1636.83 141.813 1637.54 141.016C1638.24 140.223 1639.2 139.827 1640.42 139.827ZM1640.42 141.052C1639.62 141.052 1638.99 141.341 1638.52 141.919C1638.05 142.497 1637.81 143.276 1637.81 144.257C1637.81 145.237 1638.04 146.016 1638.51 146.594C1638.97 147.177 1639.61 147.468 1640.42 147.468C1641.22 147.468 1641.85 147.177 1642.32 146.594C1642.78 146.016 1643.02 145.237 1643.02 144.257C1643.02 143.272 1642.78 142.493 1642.32 141.919C1641.85 141.341 1641.22 141.052 1640.42 141.052ZM1646.83 146.214C1646.89 146.616 1647.1 146.934 1647.47 147.169C1647.83 147.407 1648.3 147.526 1648.86 147.526C1649.39 147.526 1649.83 147.403 1650.17 147.157C1650.52 146.915 1650.69 146.606 1650.69 146.231C1650.69 145.911 1650.56 145.647 1650.3 145.44C1650.05 145.237 1649.64 145.069 1649.08 144.936L1647.99 144.673C1647.22 144.493 1646.66 144.214 1646.3 143.835C1645.94 143.456 1645.76 142.956 1645.76 142.335C1645.76 141.581 1646.04 140.975 1646.61 140.518C1647.17 140.057 1647.92 139.827 1648.84 139.827C1649.7 139.827 1650.41 140.053 1650.98 140.507C1651.54 140.96 1651.85 141.542 1651.89 142.253H1650.61C1650.55 141.862 1650.36 141.553 1650.04 141.327C1649.72 141.1 1649.31 140.987 1648.82 140.987C1648.3 140.987 1647.88 141.102 1647.57 141.333C1647.25 141.563 1647.09 141.868 1647.09 142.247C1647.09 142.548 1647.21 142.792 1647.46 142.979C1647.69 143.167 1648.09 143.325 1648.64 143.454L1649.57 143.682C1650.44 143.885 1651.06 144.173 1651.45 144.544C1651.83 144.919 1652.02 145.425 1652.02 146.061C1652.02 146.87 1651.73 147.51 1651.14 147.983C1650.56 148.456 1649.76 148.692 1648.76 148.692C1647.83 148.692 1647.07 148.468 1646.48 148.018C1645.9 147.569 1645.58 146.968 1645.53 146.214H1646.83ZM1656.63 148.487V140.032H1658.17L1660.85 146.454H1660.95L1663.65 140.032H1665.18V148.487H1663.97V142.382H1663.88L1661.41 148.241H1660.41L1657.93 142.382H1657.85V148.487H1656.63ZM1669.65 147.491C1670.2 147.491 1670.62 147.298 1670.92 146.911C1671.22 146.528 1671.37 145.989 1671.37 145.294C1671.37 144.602 1671.22 144.063 1670.92 143.677C1670.62 143.294 1670.2 143.102 1669.65 143.102C1669.11 143.102 1668.69 143.294 1668.39 143.677C1668.09 144.059 1667.94 144.598 1667.94 145.294C1667.94 145.993 1668.09 146.534 1668.39 146.917C1668.69 147.3 1669.11 147.491 1669.65 147.491ZM1669.65 148.61C1668.72 148.61 1667.98 148.315 1667.45 147.725C1666.91 147.135 1666.64 146.325 1666.64 145.294C1666.64 144.266 1666.91 143.458 1667.45 142.868C1667.99 142.278 1668.72 141.983 1669.65 141.983C1670.58 141.983 1671.32 142.278 1671.85 142.868C1672.39 143.458 1672.66 144.266 1672.66 145.294C1672.66 146.325 1672.39 147.135 1671.86 147.725C1671.32 148.315 1670.59 148.61 1669.65 148.61ZM1675.26 148.839C1675.26 150.116 1674.58 150.755 1673.2 150.755C1673.04 150.755 1672.94 150.753 1672.92 150.749V149.694H1673.1C1673.43 149.694 1673.67 149.626 1673.81 149.489C1673.94 149.36 1674.01 149.139 1674.01 148.827V142.106H1675.26V148.839ZM1674.63 140.987C1674.4 140.987 1674.21 140.913 1674.05 140.764C1673.9 140.62 1673.82 140.438 1673.82 140.219C1673.82 140.001 1673.9 139.817 1674.05 139.669C1674.21 139.52 1674.4 139.446 1674.63 139.446C1674.87 139.446 1675.06 139.52 1675.22 139.669C1675.37 139.817 1675.45 140.001 1675.45 140.219C1675.45 140.438 1675.37 140.62 1675.22 140.764C1675.06 140.913 1674.87 140.987 1674.63 140.987ZM1678.99 147.532C1679.47 147.532 1679.86 147.399 1680.18 147.134C1680.49 146.868 1680.65 146.536 1680.65 146.137V145.604L1679.09 145.704C1678.24 145.762 1677.81 146.069 1677.81 146.624C1677.81 146.905 1677.92 147.128 1678.14 147.292C1678.36 147.452 1678.64 147.532 1678.99 147.532ZM1678.67 148.593C1678.05 148.593 1677.54 148.421 1677.15 148.077C1676.75 147.721 1676.54 147.257 1676.54 146.682C1676.54 146.112 1676.75 145.663 1677.16 145.335C1677.57 145.01 1678.16 144.825 1678.92 144.778L1680.65 144.678V144.128C1680.65 143.425 1680.21 143.073 1679.34 143.073C1678.6 143.073 1678.16 143.309 1678.01 143.782H1676.79C1676.85 143.235 1677.12 142.798 1677.6 142.469C1678.07 142.145 1678.67 141.983 1679.4 141.983C1680.19 141.983 1680.81 142.173 1681.25 142.552C1681.68 142.927 1681.9 143.452 1681.9 144.128V148.487H1680.69V147.591H1680.59C1680.19 148.259 1679.55 148.593 1678.67 148.593ZM1684.08 142.106L1685.67 147.139H1685.77L1687.35 142.106H1688.68L1686.39 148.487H1685.03L1682.73 142.106H1684.08ZM1692.13 143.055C1691.67 143.055 1691.29 143.206 1690.99 143.507C1690.68 143.807 1690.52 144.208 1690.48 144.708H1693.7C1693.69 144.204 1693.54 143.803 1693.26 143.507C1692.97 143.206 1692.6 143.055 1692.13 143.055ZM1694.91 146.764C1694.77 147.339 1694.45 147.79 1693.97 148.118C1693.48 148.446 1692.87 148.61 1692.15 148.61C1691.23 148.61 1690.51 148.315 1689.99 147.725C1689.46 147.139 1689.2 146.337 1689.2 145.317C1689.2 144.298 1689.46 143.487 1690 142.885C1690.53 142.284 1691.24 141.983 1692.14 141.983C1693.03 141.983 1693.72 142.268 1694.23 142.839C1694.74 143.409 1694.99 144.196 1694.99 145.2V145.639H1690.48V145.71C1690.5 146.272 1690.66 146.718 1690.97 147.046C1691.27 147.374 1691.68 147.538 1692.18 147.538C1692.95 147.538 1693.46 147.28 1693.7 146.764H1694.91ZM1696.07 150.11C1697.02 148.434 1697.5 146.721 1697.5 144.971C1697.5 144.018 1697.36 143.081 1697.09 142.159C1696.82 141.237 1696.47 140.53 1696.05 140.038H1697.17C1698.26 141.432 1698.8 143.077 1698.8 144.971C1698.8 147.065 1698.27 148.778 1697.22 150.11H1696.07Z" fill="#A3A3A3"/>
<rect x="1238.21" y="139.444" width="18.175" height="13.1479" fill="#A3A3A3"/>
<path d="M1240.48 133.678V139.444H1242.75V134.87C1242.75 133.765 1243.65 132.87 1244.75 132.87H1249.84C1250.95 132.87 1251.84 133.765 1251.84 134.87V139.444H1254.11V133.678C1254.11 132.021 1252.77 130.678 1251.11 130.678H1243.48C1241.82 130.678 1240.48 132.021 1240.48 133.678Z" fill="#A3A3A3"/>
<path d="M2111.75 130.678V132.87C2106.1 132.87 2101.52 137.285 2101.52 142.731C2101.52 148.177 2106.1 152.591 2111.75 152.591C2117.39 152.591 2121.97 148.177 2121.97 142.731H2124.24C2124.24 149.387 2118.65 154.783 2111.75 154.783C2104.84 154.783 2099.25 149.387 2099.25 142.731C2099.25 136.074 2104.84 130.678 2111.75 130.678Z" fill="#ADADAD"/>
<path d="M2119.7 131.774L2110.61 137.252V126.296L2119.7 131.774Z" fill="#ADADAD"/>
<g filter="url(#filter6_i)">
<rect x="413.519" y="115.339" width="88.6031" height="52.5915" rx="5" fill="url(#paint12_linear)"/>
</g>
<rect x="414.019" y="115.839" width="87.6031" height="51.5915" rx="4.5" stroke="url(#paint13_linear)"/>
<path fill-rule="evenodd" clip-rule="evenodd" d="M445.325 135.061V132.87H449.897V135.061H445.325ZM445.325 139.444V137.252H449.983V139.444H445.325ZM445.325 141.635V143.826H449.983V141.635H445.325Z" fill="#979797"/>
<path fill-rule="evenodd" clip-rule="evenodd" d="M454.413 128.487H472.57C473.839 128.487 474.859 129.471 474.859 130.684V152.586C474.859 153.784 473.835 154.783 472.57 154.783L454.413 154.783H452.141L443.07 154.783C441.801 154.783 440.781 153.799 440.781 152.586V130.684C440.781 129.486 441.806 128.487 443.07 128.487H452.141H454.413ZM452.141 130.679C447.078 130.679 443.07 130.678 443.07 130.678C443.066 130.678 443.053 152.586 443.053 152.586C443.053 152.587 447.07 152.588 452.141 152.589V130.679ZM454.413 152.589V130.68C462.733 130.681 472.587 130.682 472.587 130.684C472.587 130.684 472.574 152.591 472.57 152.591C472.57 152.591 462.73 152.591 454.413 152.589Z" fill="#575757"/>
<path fill-rule="evenodd" clip-rule="evenodd" d="M234.04 154.783C241.569 154.783 247.672 148.896 247.672 141.635C247.672 134.374 241.569 128.487 234.04 128.487C226.512 128.487 220.409 134.374 220.409 141.635C220.409 148.896 226.512 154.783 234.04 154.783Z" fill="#53C22B"/>
<path fill-rule="evenodd" clip-rule="evenodd" d="M188.603 154.783C196.131 154.783 202.234 148.896 202.234 141.635C202.234 134.374 196.131 128.487 188.603 128.487C181.075 128.487 174.972 134.374 174.972 141.635C174.972 148.896 181.075 154.783 188.603 154.783Z" fill="#E6C02A"/>
<path fill-rule="evenodd" clip-rule="evenodd" d="M143.165 154.783C150.694 154.783 156.797 148.896 156.797 141.635C156.797 134.374 150.694 128.487 143.165 128.487C135.637 128.487 129.534 134.374 129.534 141.635C129.534 148.896 135.637 154.783 143.165 154.783Z" fill="#FF5A52"/>
<g filter="url(#filter7_i)">
<rect x="334.003" y="115.339" width="61.3406" height="52.5915" rx="5" fill="url(#paint14_linear)"/>
</g>
<rect x="334.503" y="115.839" width="60.3406" height="51.5915" rx="4.5" stroke="url(#paint15_linear)"/>
<path d="M358.175 150.312C357.369 151.13 357.369 152.444 358.175 153.263V153.263C358.999 154.098 360.347 154.098 361.17 153.263L372.501 141.761C372.57 141.691 372.57 141.579 372.501 141.509L361.17 130.007C360.347 129.171 358.999 129.171 358.175 130.007V130.007C357.369 130.826 357.369 132.14 358.175 132.958L366.723 141.635L358.175 150.312Z" fill="#ADADAD"/>
<g filter="url(#filter8_i)">
<rect x="274.935" y="115.339" width="61.3406" height="52.5915" rx="5" fill="url(#paint16_linear)"/>
</g>
<rect x="275.435" y="115.839" width="60.3406" height="51.5915" rx="4.5" stroke="url(#paint17_linear)"/>
<path d="M312.103 150.312C312.909 151.13 312.909 152.444 312.103 153.263V153.263C311.28 154.098 309.931 154.098 309.108 153.263L297.778 141.761C297.709 141.691 297.709 141.579 297.778 141.509L309.108 130.007C309.931 129.171 311.28 129.171 312.103 130.007V130.007C312.909 130.826 312.909 132.14 312.103 132.958L303.555 141.635L312.103 150.312Z" fill="#ADADAD"/>
<rect x="99.5" y="99.5" width="2909" height="1977" rx="5.5" stroke="url(#paint18_linear)"/>
<rect x="100.5" y="100.5" width="2907" height="1975" rx="4.5" stroke="url(#paint19_linear)"/>
<rect x="100" y="196.454" width="2.27187" height="2.60686" fill="#AFAFB0"/>
<rect x="3005.73" y="196.454" width="2.27187" height="2.60686" fill="#AFAFAF"/>
<rect x="3005.73" y="131.282" width="2.27187" height="2.60686" fill="#BEBEBE"/>
<rect x="3005.73" y="133.889" width="2.27187" height="62.5646" fill="url(#paint20_linear)"/>
<defs>
<filter id="filter0_d" x="334.42" y="2406.42" width="2443.16" height="183.16" filterUnits="userSpaceOnUse" color-interpolation-filters="sRGB">
<feFlood flood-opacity="0" result="BackgroundImageFix"/>
<feColorMatrix in="SourceAlpha" type="matrix" values="0 0 0 0 0 0 0 0 0 0 0 0 0 0 0 0 0 0 127 0"/>
<feOffset/>
<feGaussianBlur stdDeviation="41.29"/>
<feColorMatrix type="matrix" values="0 0 0 0 0 0 0 0 0 0 0 0 0 0 0 0 0 0 0.46 0"/>
<feBlend mode="normal" in2="BackgroundImageFix" result="effect1_dropShadow"/>
<feBlend mode="normal" in="SourceGraphic" in2="effect1_dropShadow" result="shape"/>
</filter>
<filter id="filter1_d" x="1023.62" y="2526" width="1064.97" height="52.0337" filterUnits="userSpaceOnUse" color-interpolation-filters="sRGB">
<feFlood flood-opacity="0" result="BackgroundImageFix"/>
<feColorMatrix in="SourceAlpha" type="matrix" values="0 0 0 0 0 0 0 0 0 0 0 0 0 0 0 0 0 0 127 0"/>
<feOffset dy="3"/>
<feGaussianBlur stdDeviation="2.5"/>
<feColorMatrix type="matrix" values="0 0 0 0 0 0 0 0 0 0 0 0 0 0 0 0 0 0 0.38 0"/>
<feBlend mode="normal" in2="BackgroundImageFix" result="effect1_dropShadow"/>
<feBlend mode="normal" in="SourceGraphic" in2="effect1_dropShadow" result="shape"/>
</filter>
<filter id="filter2_b" x="96" y="179.051" width="2916" height="1900.95" filterUnits="userSpaceOnUse" color-interpolation-filters="sRGB">
<feFlood flood-opacity="0" result="BackgroundImageFix"/>
<feGaussianBlur in="BackgroundImage" stdDeviation="2"/>
<feComposite in2="SourceAlpha" operator="in" result="effect1_backgroundBlur"/>
<feBlend mode="normal" in="SourceGraphic" in2="effect1_backgroundBlur" result="shape"/>
</filter>
<filter id="filter3_i" x="2846.7" y="115.339" width="88.6031" height="52.5915" filterUnits="userSpaceOnUse" color-interpolation-filters="sRGB">
<feFlood flood-opacity="0" result="BackgroundImageFix"/>
<feBlend mode="normal" in="SourceGraphic" in2="BackgroundImageFix" result="shape"/>
<feColorMatrix in="SourceAlpha" type="matrix" values="0 0 0 0 0 0 0 0 0 0 0 0 0 0 0 0 0 0 127 0" result="hardAlpha"/>
<feOffset dy="2"/>
<feComposite in2="hardAlpha" operator="arithmetic" k2="-1" k3="1"/>
<feColorMatrix type="matrix" values="0 0 0 0 1 0 0 0 0 1 0 0 0 0 1 0 0 0 1 0"/>
<feBlend mode="normal" in2="shape" result="effect1_innerShadow"/>
</filter>
<filter id="filter4_i" x="2744.46" y="115.339" width="88.6031" height="52.5915" filterUnits="userSpaceOnUse" color-interpolation-filters="sRGB">
<feFlood flood-opacity="0" result="BackgroundImageFix"/>
<feBlend mode="normal" in="SourceGraphic" in2="BackgroundImageFix" result="shape"/>
<feColorMatrix in="SourceAlpha" type="matrix" values="0 0 0 0 0 0 0 0 0 0 0 0 0 0 0 0 0 0 127 0" result="hardAlpha"/>
<feOffset dy="2"/>
<feComposite in2="hardAlpha" operator="arithmetic" k2="-1" k3="1"/>
<feColorMatrix type="matrix" values="0 0 0 0 1 0 0 0 0 1 0 0 0 0 1 0 0 0 1 0"/>
<feBlend mode="normal" in2="shape" result="effect1_innerShadow"/>
</filter>
<filter id="filter5_i" x="963.312" y="115.339" width="1176.83" height="52.5915" filterUnits="userSpaceOnUse" color-interpolation-filters="sRGB">
<feFlood flood-opacity="0" result="BackgroundImageFix"/>
<feBlend mode="normal" in="SourceGraphic" in2="BackgroundImageFix" result="shape"/>
<feColorMatrix in="SourceAlpha" type="matrix" values="0 0 0 0 0 0 0 0 0 0 0 0 0 0 0 0 0 0 127 0" result="hardAlpha"/>
<feOffset dy="2"/>
<feComposite in2="hardAlpha" operator="arithmetic" k2="-1" k3="1"/>
<feColorMatrix type="matrix" values="0 0 0 0 1 0 0 0 0 1 0 0 0 0 1 0 0 0 1 0"/>
<feBlend mode="normal" in2="shape" result="effect1_innerShadow"/>
</filter>
<filter id="filter6_i" x="413.519" y="115.339" width="88.6031" height="52.5915" filterUnits="userSpaceOnUse" color-interpolation-filters="sRGB">
<feFlood flood-opacity="0" result="BackgroundImageFix"/>
<feBlend mode="normal" in="SourceGraphic" in2="BackgroundImageFix" result="shape"/>
<feColorMatrix in="SourceAlpha" type="matrix" values="0 0 0 0 0 0 0 0 0 0 0 0 0 0 0 0 0 0 127 0" result="hardAlpha"/>
<feOffset dy="2"/>
<feComposite in2="hardAlpha" operator="arithmetic" k2="-1" k3="1"/>
<feColorMatrix type="matrix" values="0 0 0 0 1 0 0 0 0 1 0 0 0 0 1 0 0 0 1 0"/>
<feBlend mode="normal" in2="shape" result="effect1_innerShadow"/>
</filter>
<filter id="filter7_i" x="334.003" y="115.339" width="61.3406" height="52.5915" filterUnits="userSpaceOnUse" color-interpolation-filters="sRGB">
<feFlood flood-opacity="0" result="BackgroundImageFix"/>
<feBlend mode="normal" in="SourceGraphic" in2="BackgroundImageFix" result="shape"/>
<feColorMatrix in="SourceAlpha" type="matrix" values="0 0 0 0 0 0 0 0 0 0 0 0 0 0 0 0 0 0 127 0" result="hardAlpha"/>
<feOffset dy="2"/>
<feComposite in2="hardAlpha" operator="arithmetic" k2="-1" k3="1"/>
<feColorMatrix type="matrix" values="0 0 0 0 1 0 0 0 0 1 0 0 0 0 1 0 0 0 1 0"/>
<feBlend mode="normal" in2="shape" result="effect1_innerShadow"/>
</filter>
<filter id="filter8_i" x="274.935" y="115.339" width="61.3406" height="52.5915" filterUnits="userSpaceOnUse" color-interpolation-filters="sRGB">
<feFlood flood-opacity="0" result="BackgroundImageFix"/>
<feBlend mode="normal" in="SourceGraphic" in2="BackgroundImageFix" result="shape"/>
<feColorMatrix in="SourceAlpha" type="matrix" values="0 0 0 0 0 0 0 0 0 0 0 0 0 0 0 0 0 0 127 0" result="hardAlpha"/>
<feOffset dy="2"/>
<feComposite in2="hardAlpha" operator="arithmetic" k2="-1" k3="1"/>
<feColorMatrix type="matrix" values="0 0 0 0 1 0 0 0 0 1 0 0 0 0 1 0 0 0 1 0"/>
<feBlend mode="normal" in2="shape" result="effect1_innerShadow"/>
</filter>
<linearGradient id="paint0_linear" x1="1556" y1="2556" x2="1556" y2="2573" gradientUnits="userSpaceOnUse">
<stop offset="0.474551" stop-color="#D4D4D4"/>
<stop offset="1" stop-color="#B4B4B4"/>
</linearGradient>
<radialGradient id="paint1_radial" cx="0" cy="0" r="1" gradientUnits="userSpaceOnUse" gradientTransform="translate(1556 2469) rotate(90) scale(272 1802.61)">
<stop stop-color="#DBDBDB"/>
<stop offset="1" stop-color="white" stop-opacity="0"/>
</radialGradient>
<linearGradient id="paint2_linear" x1="1556" y1="2176" x2="1556" y2="2556.04" gradientUnits="userSpaceOnUse">
<stop stop-color="white" stop-opacity="0"/>
<stop offset="0.541436" stop-color="white"/>
<stop offset="1" stop-color="white" stop-opacity="0"/>
</linearGradient>
<linearGradient id="paint3_linear" x1="1556" y1="2176" x2="1556" y2="2442" gradientUnits="userSpaceOnUse">
<stop stop-color="#D7D7D7"/>
<stop offset="1" stop-color="white" stop-opacity="0"/>
</linearGradient>
<linearGradient id="paint4_linear" x1="1554" y1="102.191" x2="1554" y2="181.079" gradientUnits="userSpaceOnUse">
<stop stop-color="#E4E4E4"/>
<stop offset="1" stop-color="#CDCCCC"/>
</linearGradient>
<linearGradient id="paint5_linear" x1="2951.2" y1="126.296" x2="2951.2" y2="181.079" gradientUnits="userSpaceOnUse">
<stop stop-color="#BFC0BF"/>
<stop offset="1" stop-color="#AFB0B0"/>
</linearGradient>
<linearGradient id="paint6_linear" x1="2846.7" y1="115.339" x2="2846.7" y2="167.931" gradientUnits="userSpaceOnUse">
<stop stop-color="#FBFBFB"/>
<stop offset="1" stop-color="#F3F3F3"/>
</linearGradient>
<linearGradient id="paint7_linear" x1="2891" y1="115.339" x2="2891" y2="167.931" gradientUnits="userSpaceOnUse">
<stop stop-color="#CECECE"/>
<stop offset="1" stop-color="#ACACAC"/>
</linearGradient>
<linearGradient id="paint8_linear" x1="2744.46" y1="115.339" x2="2744.46" y2="167.931" gradientUnits="userSpaceOnUse">
<stop stop-color="#FBFBFB"/>
<stop offset="1" stop-color="#F3F3F3"/>
</linearGradient>
<linearGradient id="paint9_linear" x1="2788.76" y1="115.339" x2="2788.76" y2="167.931" gradientUnits="userSpaceOnUse">
<stop stop-color="#CECECE"/>
<stop offset="1" stop-color="#ACACAC"/>
</linearGradient>
<linearGradient id="paint10_linear" x1="963.312" y1="115.339" x2="963.312" y2="167.931" gradientUnits="userSpaceOnUse">
<stop stop-color="#FBFBFB"/>
<stop offset="1" stop-color="#F3F3F3"/>
</linearGradient>
<linearGradient id="paint11_linear" x1="1551.73" y1="115.339" x2="1551.73" y2="167.931" gradientUnits="userSpaceOnUse">
<stop stop-color="#CECECE"/>
<stop offset="1" stop-color="#ACACAC"/>
</linearGradient>
<linearGradient id="paint12_linear" x1="413.519" y1="115.339" x2="413.519" y2="167.931" gradientUnits="userSpaceOnUse">
<stop stop-color="#FBFBFB"/>
<stop offset="1" stop-color="#F3F3F3"/>
</linearGradient>
<linearGradient id="paint13_linear" x1="457.82" y1="115.339" x2="457.82" y2="167.931" gradientUnits="userSpaceOnUse">
<stop stop-color="#CECECE"/>
<stop offset="1" stop-color="#ACACAC"/>
</linearGradient>
<linearGradient id="paint14_linear" x1="334.003" y1="115.339" x2="334.003" y2="167.931" gradientUnits="userSpaceOnUse">
<stop stop-color="#FBFBFB"/>
<stop offset="1" stop-color="#F3F3F3"/>
</linearGradient>
<linearGradient id="paint15_linear" x1="364.673" y1="115.339" x2="364.673" y2="167.931" gradientUnits="userSpaceOnUse">
<stop stop-color="#CECECE"/>
<stop offset="1" stop-color="#ACACAC"/>
</linearGradient>
<linearGradient id="paint16_linear" x1="274.935" y1="115.339" x2="274.935" y2="167.931" gradientUnits="userSpaceOnUse">
<stop stop-color="#FBFBFB"/>
<stop offset="1" stop-color="#F3F3F3"/>
</linearGradient>
<linearGradient id="paint17_linear" x1="305.605" y1="115.339" x2="305.605" y2="167.931" gradientUnits="userSpaceOnUse">
<stop stop-color="#CECECE"/>
<stop offset="1" stop-color="#ACACAC"/>
</linearGradient>
<linearGradient id="paint18_linear" x1="1554" y1="100" x2="1554" y2="2078.61" gradientUnits="userSpaceOnUse">
<stop stop-color="#CFCFCF"/>
<stop offset="1" stop-color="#989898"/>
</linearGradient>
<linearGradient id="paint19_linear" x1="1554" y1="100" x2="1554" y2="2076" gradientUnits="userSpaceOnUse">
<stop stop-color="#F4F4F4"/>
<stop offset="1" stop-color="#E7EBED"/>
</linearGradient>
<linearGradient id="paint20_linear" x1="3006.86" y1="133.889" x2="3006.86" y2="196.454" gradientUnits="userSpaceOnUse">
<stop stop-color="#C5C5C6"/>
<stop offset="1" stop-color="#B7B6B6"/>
</linearGradient>
</defs>
</svg>
